<mxfile host="app.diagrams.net" modified="2024-05-01T21:36:17.217Z" agent="Mozilla/5.0 (Windows NT 10.0; Win64; x64) AppleWebKit/537.36 (KHTML, like Gecko) Chrome/121.0.0.0 Safari/537.36 OPR/107.0.0.0" etag="--u92yOQVgeBN4DlNL6w" version="24.3.1" type="github">
  <diagram name="Página-1" id="3LOxqgyQ5ESFe8T1yTyt">
    <mxGraphModel dx="1854" dy="1781" grid="1" gridSize="10" guides="1" tooltips="1" connect="1" arrows="1" fold="1" page="1" pageScale="1" pageWidth="827" pageHeight="1169" math="0" shadow="0">
      <root>
        <mxCell id="0" />
        <mxCell id="1" parent="0" />
        <mxCell id="CtYGhICR3tEIGLf4jRE0-1" value="EstadoFisico" style="swimlane;fontStyle=1;align=center;verticalAlign=top;childLayout=stackLayout;horizontal=1;startSize=26;horizontalStack=0;resizeParent=1;resizeParentMax=0;resizeLast=0;collapsible=1;marginBottom=0;whiteSpace=wrap;html=1;" vertex="1" parent="1">
          <mxGeometry x="60" y="310" width="160" height="88" as="geometry" />
        </mxCell>
        <mxCell id="CtYGhICR3tEIGLf4jRE0-2" value="- id: Int&lt;div&gt;- dataRegistro: Date&lt;/div&gt;&lt;div&gt;- responsavel: Pessoa&lt;/div&gt;" style="text;strokeColor=none;fillColor=none;align=left;verticalAlign=top;spacingLeft=4;spacingRight=4;overflow=hidden;rotatable=0;points=[[0,0.5],[1,0.5]];portConstraint=eastwest;whiteSpace=wrap;html=1;" vertex="1" parent="CtYGhICR3tEIGLf4jRE0-1">
          <mxGeometry y="26" width="160" height="54" as="geometry" />
        </mxCell>
        <mxCell id="CtYGhICR3tEIGLf4jRE0-3" value="" style="line;strokeWidth=1;fillColor=none;align=left;verticalAlign=middle;spacingTop=-1;spacingLeft=3;spacingRight=3;rotatable=0;labelPosition=right;points=[];portConstraint=eastwest;strokeColor=inherit;" vertex="1" parent="CtYGhICR3tEIGLf4jRE0-1">
          <mxGeometry y="80" width="160" height="8" as="geometry" />
        </mxCell>
        <mxCell id="CtYGhICR3tEIGLf4jRE0-5" value="Pessoa" style="swimlane;fontStyle=1;align=center;verticalAlign=top;childLayout=stackLayout;horizontal=1;startSize=26;horizontalStack=0;resizeParent=1;resizeParentMax=0;resizeLast=0;collapsible=1;marginBottom=0;whiteSpace=wrap;html=1;" vertex="1" parent="1">
          <mxGeometry x="600" y="130" width="160" height="280" as="geometry" />
        </mxCell>
        <mxCell id="CtYGhICR3tEIGLf4jRE0-6" value="- id: Int&lt;div&gt;- nome: Str&lt;/div&gt;&lt;div&gt;- cpf: Int&lt;/div&gt;&lt;div&gt;- email: Str&lt;/div&gt;&lt;div&gt;- interesse: Str&lt;/div&gt;&lt;div&gt;- endereço: Endereço&lt;/div&gt;&lt;div&gt;- livros: List&amp;lt;Livro&amp;gt;&lt;/div&gt;&lt;div&gt;- dinheiro: Double&lt;/div&gt;" style="text;strokeColor=none;fillColor=none;align=left;verticalAlign=top;spacingLeft=4;spacingRight=4;overflow=hidden;rotatable=0;points=[[0,0.5],[1,0.5]];portConstraint=eastwest;whiteSpace=wrap;html=1;" vertex="1" parent="CtYGhICR3tEIGLf4jRE0-5">
          <mxGeometry y="26" width="160" height="124" as="geometry" />
        </mxCell>
        <mxCell id="CtYGhICR3tEIGLf4jRE0-7" value="" style="line;strokeWidth=1;fillColor=none;align=left;verticalAlign=middle;spacingTop=-1;spacingLeft=3;spacingRight=3;rotatable=0;labelPosition=right;points=[];portConstraint=eastwest;strokeColor=inherit;" vertex="1" parent="CtYGhICR3tEIGLf4jRE0-5">
          <mxGeometry y="150" width="160" height="8" as="geometry" />
        </mxCell>
        <mxCell id="CtYGhICR3tEIGLf4jRE0-8" value="+ rasgar(Livro): void&lt;div&gt;+ comprar(Livro): void&lt;/div&gt;&lt;div&gt;+ pegar(Livro): void&lt;/div&gt;&lt;div&gt;+ devolver(Livro): void&lt;/div&gt;&lt;div&gt;+ entrar(Endereço): void&lt;/div&gt;&lt;div&gt;+ sair(Endereço): void&lt;/div&gt;&lt;div&gt;+ solicitar(): void&lt;/div&gt;&lt;div&gt;+ ler(): void&lt;/div&gt;" style="text;strokeColor=none;fillColor=none;align=left;verticalAlign=top;spacingLeft=4;spacingRight=4;overflow=hidden;rotatable=0;points=[[0,0.5],[1,0.5]];portConstraint=eastwest;whiteSpace=wrap;html=1;" vertex="1" parent="CtYGhICR3tEIGLf4jRE0-5">
          <mxGeometry y="158" width="160" height="122" as="geometry" />
        </mxCell>
        <mxCell id="CtYGhICR3tEIGLf4jRE0-9" value="Livro" style="swimlane;fontStyle=1;align=center;verticalAlign=top;childLayout=stackLayout;horizontal=1;startSize=26;horizontalStack=0;resizeParent=1;resizeParentMax=0;resizeLast=0;collapsible=1;marginBottom=0;whiteSpace=wrap;html=1;" vertex="1" parent="1">
          <mxGeometry x="290" y="140" width="210" height="260" as="geometry" />
        </mxCell>
        <mxCell id="CtYGhICR3tEIGLf4jRE0-10" value="+ id: Int&lt;div&gt;- nome: Str&lt;/div&gt;&lt;div&gt;- autor: Pessoa&lt;/div&gt;&lt;div&gt;- publicoAlvo: List&amp;lt;Pessoa&amp;gt;&amp;nbsp;&lt;/div&gt;&lt;div&gt;- tema: List&amp;lt;Tema&amp;gt;&lt;/div&gt;&lt;div&gt;- valor: Double&lt;/div&gt;&lt;div&gt;- estadoFisico: List&amp;lt;EstadoFisico&amp;gt;&lt;/div&gt;&lt;div&gt;- pagina: Int&lt;/div&gt;&lt;div&gt;- disponibilidade: String&lt;/div&gt;" style="text;strokeColor=none;fillColor=none;align=left;verticalAlign=top;spacingLeft=4;spacingRight=4;overflow=hidden;rotatable=0;points=[[0,0.5],[1,0.5]];portConstraint=eastwest;whiteSpace=wrap;html=1;" vertex="1" parent="CtYGhICR3tEIGLf4jRE0-9">
          <mxGeometry y="26" width="210" height="144" as="geometry" />
        </mxCell>
        <mxCell id="CtYGhICR3tEIGLf4jRE0-11" value="" style="line;strokeWidth=1;fillColor=none;align=left;verticalAlign=middle;spacingTop=-1;spacingLeft=3;spacingRight=3;rotatable=0;labelPosition=right;points=[];portConstraint=eastwest;strokeColor=inherit;" vertex="1" parent="CtYGhICR3tEIGLf4jRE0-9">
          <mxGeometry y="170" width="210" height="8" as="geometry" />
        </mxCell>
        <mxCell id="CtYGhICR3tEIGLf4jRE0-12" value="+ abrir(): void&lt;div&gt;+ fechar(): void&lt;/div&gt;&lt;div&gt;+ passarPagina(Integer): void&lt;/div&gt;&lt;div&gt;+ marcar(String): void&lt;/div&gt;&lt;div&gt;+ ler(Int): String&lt;/div&gt;" style="text;strokeColor=none;fillColor=none;align=left;verticalAlign=top;spacingLeft=4;spacingRight=4;overflow=hidden;rotatable=0;points=[[0,0.5],[1,0.5]];portConstraint=eastwest;whiteSpace=wrap;html=1;" vertex="1" parent="CtYGhICR3tEIGLf4jRE0-9">
          <mxGeometry y="178" width="210" height="82" as="geometry" />
        </mxCell>
        <mxCell id="CtYGhICR3tEIGLf4jRE0-22" style="edgeStyle=orthogonalEdgeStyle;rounded=0;orthogonalLoop=1;jettySize=auto;html=1;entryX=0.5;entryY=0;entryDx=0;entryDy=0;endArrow=block;endFill=0;endSize=13;" edge="1" parent="1" source="CtYGhICR3tEIGLf4jRE0-13" target="CtYGhICR3tEIGLf4jRE0-18">
          <mxGeometry relative="1" as="geometry" />
        </mxCell>
        <mxCell id="CtYGhICR3tEIGLf4jRE0-25" style="edgeStyle=orthogonalEdgeStyle;rounded=0;orthogonalLoop=1;jettySize=auto;html=1;entryX=0;entryY=0.5;entryDx=0;entryDy=0;endArrow=diamond;endFill=1;endSize=13;" edge="1" parent="1" source="CtYGhICR3tEIGLf4jRE0-13" target="CtYGhICR3tEIGLf4jRE0-10">
          <mxGeometry relative="1" as="geometry" />
        </mxCell>
        <mxCell id="CtYGhICR3tEIGLf4jRE0-13" value="Tema" style="swimlane;fontStyle=1;align=center;verticalAlign=top;childLayout=stackLayout;horizontal=1;startSize=26;horizontalStack=0;resizeParent=1;resizeParentMax=0;resizeLast=0;collapsible=1;marginBottom=0;whiteSpace=wrap;html=1;" vertex="1" parent="1">
          <mxGeometry x="60" y="120" width="160" height="88" as="geometry" />
        </mxCell>
        <mxCell id="CtYGhICR3tEIGLf4jRE0-14" value="- id: Int&lt;div&gt;- assunto: Str&lt;/div&gt;&lt;div&gt;- publicoAlvo: Pessoa&lt;/div&gt;" style="text;strokeColor=none;fillColor=none;align=left;verticalAlign=top;spacingLeft=4;spacingRight=4;overflow=hidden;rotatable=0;points=[[0,0.5],[1,0.5]];portConstraint=eastwest;whiteSpace=wrap;html=1;" vertex="1" parent="CtYGhICR3tEIGLf4jRE0-13">
          <mxGeometry y="26" width="160" height="54" as="geometry" />
        </mxCell>
        <mxCell id="CtYGhICR3tEIGLf4jRE0-15" value="" style="line;strokeWidth=1;fillColor=none;align=left;verticalAlign=middle;spacingTop=-1;spacingLeft=3;spacingRight=3;rotatable=0;labelPosition=right;points=[];portConstraint=eastwest;strokeColor=inherit;" vertex="1" parent="CtYGhICR3tEIGLf4jRE0-13">
          <mxGeometry y="80" width="160" height="8" as="geometry" />
        </mxCell>
        <mxCell id="CtYGhICR3tEIGLf4jRE0-17" value="&lt;b&gt;&lt;font style=&quot;font-size: 15px;&quot;&gt;Sistema Biblioteca Monte Iro&lt;/font&gt;&lt;/b&gt;" style="html=1;whiteSpace=wrap;" vertex="1" parent="1">
          <mxGeometry x="290" y="-20" width="160" height="50" as="geometry" />
        </mxCell>
        <mxCell id="CtYGhICR3tEIGLf4jRE0-18" value="Caracteristica" style="swimlane;fontStyle=1;align=center;verticalAlign=top;childLayout=stackLayout;horizontal=1;startSize=26;horizontalStack=0;resizeParent=1;resizeParentMax=0;resizeLast=0;collapsible=1;marginBottom=0;whiteSpace=wrap;html=1;" vertex="1" parent="1">
          <mxGeometry x="-160" y="230" width="160" height="88" as="geometry" />
        </mxCell>
        <mxCell id="CtYGhICR3tEIGLf4jRE0-19" value="- id: Int&lt;div&gt;- nome: Str&lt;/div&gt;&lt;div&gt;- intensidade: Str&lt;/div&gt;&lt;div&gt;&lt;br&gt;&lt;/div&gt;" style="text;strokeColor=none;fillColor=none;align=left;verticalAlign=top;spacingLeft=4;spacingRight=4;overflow=hidden;rotatable=0;points=[[0,0.5],[1,0.5]];portConstraint=eastwest;whiteSpace=wrap;html=1;" vertex="1" parent="CtYGhICR3tEIGLf4jRE0-18">
          <mxGeometry y="26" width="160" height="54" as="geometry" />
        </mxCell>
        <mxCell id="CtYGhICR3tEIGLf4jRE0-20" value="" style="line;strokeWidth=1;fillColor=none;align=left;verticalAlign=middle;spacingTop=-1;spacingLeft=3;spacingRight=3;rotatable=0;labelPosition=right;points=[];portConstraint=eastwest;strokeColor=inherit;" vertex="1" parent="CtYGhICR3tEIGLf4jRE0-18">
          <mxGeometry y="80" width="160" height="8" as="geometry" />
        </mxCell>
        <mxCell id="CtYGhICR3tEIGLf4jRE0-23" style="edgeStyle=orthogonalEdgeStyle;rounded=0;orthogonalLoop=1;jettySize=auto;html=1;entryX=0.5;entryY=1;entryDx=0;entryDy=0;endArrow=block;endFill=0;endSize=13;" edge="1" parent="1" source="CtYGhICR3tEIGLf4jRE0-2" target="CtYGhICR3tEIGLf4jRE0-18">
          <mxGeometry relative="1" as="geometry" />
        </mxCell>
        <mxCell id="CtYGhICR3tEIGLf4jRE0-24" style="edgeStyle=orthogonalEdgeStyle;rounded=0;orthogonalLoop=1;jettySize=auto;html=1;endArrow=diamond;endFill=1;endSize=14;" edge="1" parent="1">
          <mxGeometry relative="1" as="geometry">
            <mxPoint x="220" y="350" as="sourcePoint" />
            <mxPoint x="290" y="270" as="targetPoint" />
            <Array as="points">
              <mxPoint x="220" y="350" />
              <mxPoint x="255" y="350" />
              <mxPoint x="255" y="270" />
            </Array>
          </mxGeometry>
        </mxCell>
        <mxCell id="CtYGhICR3tEIGLf4jRE0-27" style="edgeStyle=orthogonalEdgeStyle;rounded=0;orthogonalLoop=1;jettySize=auto;html=1;entryX=-0.01;entryY=0.635;entryDx=0;entryDy=0;entryPerimeter=0;endArrow=diamond;endFill=0;endSize=13;" edge="1" parent="1" source="CtYGhICR3tEIGLf4jRE0-10" target="CtYGhICR3tEIGLf4jRE0-6">
          <mxGeometry relative="1" as="geometry" />
        </mxCell>
        <mxCell id="CtYGhICR3tEIGLf4jRE0-28" value="Bibliotecario" style="swimlane;fontStyle=1;align=center;verticalAlign=top;childLayout=stackLayout;horizontal=1;startSize=26;horizontalStack=0;resizeParent=1;resizeParentMax=0;resizeLast=0;collapsible=1;marginBottom=0;whiteSpace=wrap;html=1;" vertex="1" parent="1">
          <mxGeometry x="920" y="80" width="200" height="250" as="geometry" />
        </mxCell>
        <mxCell id="CtYGhICR3tEIGLf4jRE0-29" value="- id: Int&lt;div&gt;- dataNascimneto: Date&lt;/div&gt;&lt;div&gt;- carteiraTrabalho: String&lt;/div&gt;&lt;div&gt;- horaEntrada: Date&lt;/div&gt;&lt;div&gt;- registros: List&amp;lt;Registro&amp;gt;&lt;/div&gt;&lt;div&gt;- troco: Double&lt;/div&gt;" style="text;strokeColor=none;fillColor=none;align=left;verticalAlign=top;spacingLeft=4;spacingRight=4;overflow=hidden;rotatable=0;points=[[0,0.5],[1,0.5]];portConstraint=eastwest;whiteSpace=wrap;html=1;" vertex="1" parent="CtYGhICR3tEIGLf4jRE0-28">
          <mxGeometry y="26" width="200" height="94" as="geometry" />
        </mxCell>
        <mxCell id="CtYGhICR3tEIGLf4jRE0-30" value="" style="line;strokeWidth=1;fillColor=none;align=left;verticalAlign=middle;spacingTop=-1;spacingLeft=3;spacingRight=3;rotatable=0;labelPosition=right;points=[];portConstraint=eastwest;strokeColor=inherit;" vertex="1" parent="CtYGhICR3tEIGLf4jRE0-28">
          <mxGeometry y="120" width="200" height="8" as="geometry" />
        </mxCell>
        <mxCell id="CtYGhICR3tEIGLf4jRE0-31" value="+ registrarEmprestimo(Livro): void&lt;div&gt;+ registrarDevolucao(Livro): void&lt;/div&gt;&lt;div&gt;+ emprestar(Livro): void&lt;/div&gt;&lt;div&gt;+ verificar(Livro): void&lt;/div&gt;&lt;div&gt;+ horarioExpediente(): true&lt;/div&gt;" style="text;strokeColor=none;fillColor=none;align=left;verticalAlign=top;spacingLeft=4;spacingRight=4;overflow=hidden;rotatable=0;points=[[0,0.5],[1,0.5]];portConstraint=eastwest;whiteSpace=wrap;html=1;" vertex="1" parent="CtYGhICR3tEIGLf4jRE0-28">
          <mxGeometry y="128" width="200" height="122" as="geometry" />
        </mxCell>
        <mxCell id="CtYGhICR3tEIGLf4jRE0-32" value="Classname" style="swimlane;fontStyle=1;align=center;verticalAlign=top;childLayout=stackLayout;horizontal=1;startSize=26;horizontalStack=0;resizeParent=1;resizeParentMax=0;resizeLast=0;collapsible=1;marginBottom=0;whiteSpace=wrap;html=1;" vertex="1" parent="1">
          <mxGeometry x="920" y="430" width="160" height="86" as="geometry" />
        </mxCell>
        <mxCell id="CtYGhICR3tEIGLf4jRE0-33" value="+ field: type" style="text;strokeColor=none;fillColor=none;align=left;verticalAlign=top;spacingLeft=4;spacingRight=4;overflow=hidden;rotatable=0;points=[[0,0.5],[1,0.5]];portConstraint=eastwest;whiteSpace=wrap;html=1;" vertex="1" parent="CtYGhICR3tEIGLf4jRE0-32">
          <mxGeometry y="26" width="160" height="26" as="geometry" />
        </mxCell>
        <mxCell id="CtYGhICR3tEIGLf4jRE0-34" value="" style="line;strokeWidth=1;fillColor=none;align=left;verticalAlign=middle;spacingTop=-1;spacingLeft=3;spacingRight=3;rotatable=0;labelPosition=right;points=[];portConstraint=eastwest;strokeColor=inherit;" vertex="1" parent="CtYGhICR3tEIGLf4jRE0-32">
          <mxGeometry y="52" width="160" height="8" as="geometry" />
        </mxCell>
        <mxCell id="CtYGhICR3tEIGLf4jRE0-35" value="+ method(type): type" style="text;strokeColor=none;fillColor=none;align=left;verticalAlign=top;spacingLeft=4;spacingRight=4;overflow=hidden;rotatable=0;points=[[0,0.5],[1,0.5]];portConstraint=eastwest;whiteSpace=wrap;html=1;" vertex="1" parent="CtYGhICR3tEIGLf4jRE0-32">
          <mxGeometry y="60" width="160" height="26" as="geometry" />
        </mxCell>
      </root>
    </mxGraphModel>
  </diagram>
</mxfile>
